<svg xmlns="http://www.w3.org/2000/svg" viewBox="0 0 235.63 968.59"><g id="Layer_2" data-name="Layer 2"><g id="Layer_1-2" data-name="Layer 1"><path d="M231.85,894.29,0,968.59V911.15l98-28.21c27.51-7.91,54-15.14,82.9-20.64v-1c-27.87-5.85-55.39-13.08-81.87-21L0,810.7V755l231.85,78.09Z"/><path d="M172.34,694.79l59.51,16.52v54.35L0,694.79V626l231.85-71.89v56.41l-59.51,17.89ZM133.12,636,83.93,650.42c-13.76,4.13-31,8.26-44.71,11.7v.68c13.75,3.44,31.3,6.89,44.71,10.66l49.19,13.77Z"/><path d="M0,482.92H133.47c39.9,0,60.2-15.13,60.2-42,0-27.51-19.27-42.65-60.2-42.65H0V346H130c71.55,0,105.6,36.11,105.6,96.65,0,58.48-32.34,92.88-106.29,92.88H0Z"/><path d="M0,300.63V248H187.82V155.82h44V300.63Z"/><path d="M44,115.92v62.27H0V0H44V63.3H231.85v52.62Z"/></g></g></svg>